HIERARCHY
ROOT Hips
{
	OFFSET	11.5779	88.8360	-13.4663
	CHANNELS 6 Xposition Yposition Zposition Zrotation Yrotation Xrotation
	JOINT Chest
	{
		OFFSET	0.0000	16.3830	0.0000
		CHANNELS 3 Zrotation Yrotation Xrotation
		JOINT LeftCollar
		{
			OFFSET	3.8100	32.7660	-3.8100
			CHANNELS 3 Zrotation Yrotation Xrotation
			JOINT LeftUpArm
			{
				OFFSET	14.5367	0.0000	3.8951
				CHANNELS 3 Zrotation Yrotation Xrotation
				JOINT LeftLowArm
				{
					OFFSET	30.2895	0.0000	0.0000
					CHANNELS 3 Zrotation Yrotation Xrotation
					JOINT LeftHand
					{
						OFFSET	27.2415	0.0000	0.0000
						CHANNELS 3 Zrotation Yrotation Xrotation
						End Site
						{
							OFFSET	15.2400	0.0000	0.0000
						}
					}
				}
			}
		}
		JOINT Neck
		{
			OFFSET	0.0000	32.7660	0.0000
			CHANNELS 3 Zrotation Yrotation Xrotation
			JOINT Head
			{
				OFFSET	0.0000	19.6215	0.0000
				CHANNELS 3 Zrotation Yrotation Xrotation
				End Site
				{
					OFFSET	0.0000	0.0000	10.1600
				}
			}
		}
		JOINT RightCollar
		{
			OFFSET	-3.8100	32.7660	-3.8100
			CHANNELS 3 Zrotation Yrotation Xrotation
			JOINT RightUpArm
			{
				OFFSET	-14.5367	0.0000	3.8951
				CHANNELS 3 Zrotation Yrotation Xrotation
				JOINT RightLowArm
				{
					OFFSET	-30.2895	0.0000	0.0000
					CHANNELS 3 Zrotation Yrotation Xrotation
					JOINT RightHand
					{
						OFFSET	-27.2415	0.0000	0.0000
						CHANNELS 3 Zrotation Yrotation Xrotation
						End Site
						{
							OFFSET	-15.2400	0.0000	0.0000
						}
					}
				}
			}
		}
	}
	JOINT LeftUpLeg
	{
		OFFSET	9.3345	0.0000	0.0000
		CHANNELS 3 Zrotation Yrotation Xrotation
		JOINT LeftLowLeg
		{
			OFFSET	0.0000	-45.5295	0.0000
			CHANNELS 3 Zrotation Yrotation Xrotation
			JOINT LeftFoot
			{
				OFFSET	0.0000	-44.1960	0.0000
				CHANNELS 3 Zrotation Yrotation Xrotation
				End Site
				{
					OFFSET	0.0000	0.0000	20.3200
				}
			}
		}
	}
	JOINT RightUpLeg
	{
		OFFSET	-9.3345	0.0000	0.0000
		CHANNELS 3 Zrotation Yrotation Xrotation
		JOINT RightLowLeg
		{
			OFFSET	0.0000	-45.5295	0.0000
			CHANNELS 3 Zrotation Yrotation Xrotation
			JOINT RightFoot
			{
				OFFSET	0.0000	-44.1960	0.0000
				CHANNELS 3 Zrotation Yrotation Xrotation
				End Site
				{
					OFFSET	0.0000	0.0000	20.3200
				}
			}
		}
	}
}
MOTION
Frames: 10
Frame Time: 0.0166666666667
19.6851	89.6403	-5.7946	-158.2298	-70.9014	170.2333	4.0527	9.9648	17.7924	-12.1705	-5.5155	-1.3115	-66.6506	-6.5506	40.9544	20.0935	-4.9026	9.0161	-7.7504	15.1698	-3.3340	-0.9342	1.2860	-10.7546	3.4026	0.6254	24.5514	14.1501	6.5659	-3.6166	54.1504	3.4317	33.9814	-20.6537	37.6056	13.4481	-8.5583	7.7841	1.5336	10.6641	20.3292	-12.3083	-0.4229	-5.9270	9.2970	0.6532	1.9179	-6.9553	-7.8111	-11.7574	-56.1641	24.9839	-7.4900	52.7365	-5.5069	-1.0542	-22.0471	
21.0666	89.8189	-5.2895	-155.4690	-70.0115	167.5609	5.1467	10.1559	17.7870	-13.1084	-6.4625	-0.9169	-65.0025	-7.0760	40.7449	20.3922	-5.1503	8.1564	-7.4026	15.0795	-0.9739	-0.8494	1.2962	-10.7388	3.4877	0.6292	24.5678	14.1803	6.3025	-3.5984	53.9535	3.5489	33.7337	-21.2323	38.3376	13.2398	-8.1963	7.9608	1.7662	11.7578	20.5745	-12.2415	-0.6031	-5.4719	8.1575	0.9712	1.6060	-6.2333	-6.9540	-11.1867	-56.4512	23.8897	-8.2587	49.7493	-5.2630	0.3188	-18.7716	
22.2044	90.1518	-4.7994	-154.6760	-69.3450	166.4903	5.6485	9.7291	17.7335	-13.7744	-6.3966	-0.6156	-63.8884	-7.5632	41.0825	20.7091	-5.3729	7.2934	-6.3711	14.3656	-0.5029	-0.9287	1.7107	-10.5415	3.4311	1.0295	24.8001	14.0839	6.4041	-3.1663	53.8168	3.7369	33.5488	-20.7851	38.7499	13.9784	-8.1754	8.0273	1.8383	12.3159	21.0520	-11.7833	-0.8164	-5.3156	7.5581	1.2201	1.3022	-5.9942	-6.8646	-10.5194	-55.9601	23.1447	-8.5145	48.1606	-5.0116	1.0470	-16.7073	
22.7421	90.3032	-4.4964	-155.1620	-69.1036	166.4934	5.6555	9.8271	18.1659	-13.8170	-6.9807	-0.5717	-63.1757	-8.1065	41.6235	23.3051	-7.1712	6.4207	-7.8907	14.9423	-0.7047	-0.6794	1.2957	-10.5816	3.6553	0.6055	24.7236	13.9514	5.1194	-3.8240	54.0138	4.4472	34.1750	-20.8917	39.0117	13.8269	-9.8711	8.4006	1.0896	11.7620	21.8470	-11.5492	-0.6207	-5.8664	7.1773	1.4771	0.9699	-5.8717	-7.4028	-10.1093	-55.2034	22.3161	-8.5006	46.4543	-6.8050	1.7225	-10.1812	
23.1931	90.3829	-3.8813	-155.5447	-69.1285	166.4420	5.8458	8.8865	18.2006	-14.2089	-6.8006	-0.3475	-62.9039	-8.2993	41.3228	24.5406	-8.1131	6.0270	-7.3627	14.5715	-0.2697	-0.8403	1.5831	-10.3916	3.5095	0.8848	24.9381	13.7368	5.3630	-3.4880	53.7643	5.0134	33.7684	-21.1310	39.2779	13.4946	-9.5303	8.3791	1.1215	11.2842	22.2945	-11.4444	-0.5386	-6.2946	6.8682	0.7544	0.8757	-6.2155	-7.9630	-9.9612	-54.4586	22.3838	-8.6578	45.9078	-6.7277	1.7248	-9.3832	
23.6656	90.4312	-3.3652	-155.7948	-69.1517	166.4070	5.9799	8.4165	18.0987	-14.4047	-6.8648	-0.0443	-62.2649	-9.0432	41.0646	25.5931	-9.2305	5.4944	-7.3225	14.4804	0.2544	-0.7350	1.3984	-10.2499	3.6016	0.6830	25.0631	13.6112	5.3794	-3.1824	53.6969	5.2675	33.2515	-21.7339	39.6843	12.9605	-8.8153	8.3015	1.3539	10.9929	22.5929	-11.4379	-0.6035	-6.5214	6.5792	0.7447	0.6121	-6.0051	-8.2029	-9.8317	-53.8673	21.2672	-7.0658	43.5709	-5.1899	0.3359	-0.5838	
24.1517	90.4699	-2.9639	-155.9158	-69.2264	166.1850	6.1058	7.9906	18.1503	-14.6360	-6.6127	0.1770	-61.2327	-10.3929	41.2118	29.0075	-11.9739	3.9213	-9.4218	14.9362	0.0070	-0.6532	1.2107	-9.9829	3.6683	0.4690	25.3127	13.5582	5.2784	-3.1587	53.6725	5.1956	33.3762	-22.9369	40.0561	11.7254	-8.0976	8.0273	1.3269	10.0138	23.7403	-12.6524	-0.2812	-7.7486	7.5374	0.6210	0.3935	-5.9806	-8.2764	-9.7561	-53.2279	21.2846	-6.1103	43.1729	-5.5659	0.1370	0.4230	
25.2353	90.4642	-2.2573	-155.9628	-69.2589	165.9455	6.0397	7.7545	17.9949	-14.4301	-7.0529	0.3813	-60.2820	-11.1359	40.1514	28.1885	-12.4136	3.9862	-7.2399	13.0811	-0.2479	-0.5486	1.1161	-9.7165	3.7634	0.3463	25.5697	13.7151	5.1596	-2.9571	53.7574	5.1963	33.1761	-23.5641	40.3343	11.2622	-7.3153	7.6296	1.1652	9.6090	24.2231	-13.0964	-0.1451	-8.2806	7.9900	0.6423	0.2974	-5.9175	-8.0703	-9.6119	-52.1677	21.1357	-5.3359	42.6656	-6.0876	-0.1586	-1.1598	
25.7499	90.4532	-1.9219	-156.0094	-69.2915	165.7058	5.6069	7.6087	17.5090	-14.1507	-6.9872	0.7582	-59.7046	-11.3024	39.6905	31.1798	-14.5708	3.0167	-8.0500	12.5886	-0.4766	-0.2882	1.0784	-9.3505	4.0157	0.2628	25.9299	14.0607	5.1249	-2.4203	54.0171	5.1654	32.8648	-23.3143	40.3373	11.5552	-7.0270	7.3639	0.9629	8.7637	24.9004	-14.3458	-0.6064	-8.5003	8.7472	0.5490	-0.0166	-5.8532	-7.8780	-9.4811	-51.1534	20.9528	-4.7617	42.1102	-6.6677	-0.5230	-3.0428	
27.0629	90.4688	-0.6362	-156.0558	-69.3241	165.4657	5.3546	7.5140	17.3281	-14.0536	-7.0444	0.8630	-58.2621	-12.2531	38.5335	30.3554	-15.4627	3.4615	-6.3368	10.7245	-0.8234	-0.1445	1.0436	-9.1777	4.1545	0.2052	26.0985	13.6356	4.9857	-2.8582	55.0843	5.2610	32.2442	-22.0983	40.0647	13.1180	-7.1375	7.5190	0.4090	8.7099	24.6826	-14.5933	-1.1401	-7.9020	8.9483	1.0689	-0.3397	-5.6337	-7.6831	-9.3560	-50.1389	20.5743	-3.3727	41.9976	-6.0639	-1.4356	-2.9898	
